Coordinates
version=1
nRows=8
nColumns=40
inDegrees=yes

Units are S.I. units (second, meters, Newtons, ...)
Angles are in degrees.

endheader
time	pelvis_tilt	pelvis_list	pelvis_rotation	pelvis_tx	pelvis_ty	pelvis_tz	hip_flexion_r	hip_adduction_r	hip_rotation_r	knee_angle_r	knee_angle_r_beta	ankle_angle_r	subtalar_angle_r	mtp_angle_r	hip_flexion_l	hip_adduction_l	hip_rotation_l	knee_angle_l	knee_angle_l_beta	ankle_angle_l	subtalar_angle_l	mtp_angle_l	lumbar_extension	lumbar_bending	lumbar_rotation	arm_flex_r	arm_add_r	arm_rot_r	elbow_flex_r	pro_sup_r	wrist_flex_r	wrist_dev_r	arm_flex_l	arm_add_l	arm_rot_l	elbow_flex_l	pro_sup_l	wrist_flex_l	wrist_dev_l
      6.76000000	     -1.19945057	     -6.89642377	     -3.88366502	      1.05968510	      0.92931538	      0.53993051	     11.30359690	      7.03569552	    -11.55996823	     18.48198694	     18.48198694	      9.81062630	     -3.05417252	     -4.80297151	     18.84513401	    -15.47716529	     -0.74336858	     67.77869969	     67.77869969	      5.64487408	    -19.39595824	     19.02181839	    -10.31992346	      8.80632041	      1.06192946	     15.14460766	    -17.90836162	    -10.97868773	     59.13624001	     45.50941117	      0.00000000	      0.00000000	     10.59481817	     -9.99744581	     -9.40922856	     48.02089489	     45.83392213	      0.00000000	      0.00000000
      6.77907143	     -1.00668883	     -6.96524134	     -3.31633596	      1.05917219	      0.92869313	      0.54212859	     11.11346732	      7.17696723	    -11.72119425	     19.19268909	     19.19268909	     10.35331805	     -3.78696712	     -4.98848186	     20.40871403	    -15.78981093	     -0.52876839	     67.85357176	     67.85357176	      7.15765785	    -19.47383752	     19.31292516	    -10.52037526	      8.64894739	      0.67933832	     17.43797847	    -17.36331561	    -11.04908539	     61.04454681	     45.45650548	      0.00000000	      0.00000000	      8.55822154	     -9.63525304	     -8.98705996	     45.83854954	     45.77200797	      0.00000000	      0.00000000
      6.79814286	     -0.85302711	     -6.92584109	     -2.73567689	      1.05860925	      0.92812324	      0.54418742	     10.93656866	      7.27474460	    -11.59426286	     19.83547634	     19.83547634	     11.01094055	     -4.93381426	     -4.33913816	     22.04280344	    -15.83509201	     -0.24674284	     67.71884438	     67.71884438	      9.43659639	    -19.53542159	     21.99997421	    -10.61504817	      8.42048005	      0.89388057	     19.07742355	    -17.41303459	    -10.69562800	     63.48829609	     45.37274624	      0.00000000	      0.00000000	      7.89911716	     -9.10852956	     -7.37327515	     40.43044816	     45.65600653	      0.00000000	      0.00000000
      6.81721429	     -0.65311050	     -6.93947638	     -2.14696002	      1.05800963	      0.92738065	      0.54616480	     10.74468091	      7.36720654	    -11.72315029	     20.55791620	     20.55791620	     11.62819303	     -5.69407412	     -4.33978458	     23.48036342	    -15.97149612	     -0.11250701	     67.12185460	     67.12185460	     10.86404860	    -19.57483521	     22.13752191	    -10.84867510	      8.21220355	      0.55584820	     21.41148729	    -16.82543557	    -10.85429287	     65.43876730	     45.32382731	      0.00000000	      0.00000000	      5.96229743	     -8.77634636	     -6.78869224	     38.14414677	     45.57643785	      0.00000000	      0.00000000
      6.83628571	     -0.52702322	     -6.91981540	     -1.57314176	      1.05735346	      0.92672591	      0.54789426	     10.56568500	      7.47068535	    -11.68520421	     21.14770490	     21.14770490	     12.43561685	     -6.53228740	     -3.28707186	     24.91313157	    -15.92877695	      0.06529259	     66.13691987	     66.13691987	     12.63576388	    -19.60645425	     23.63755182	    -10.95442659	      8.00607016	      0.97883331	     23.06736666	    -16.96896861	    -10.86552672	     67.53904682	     45.27184623	      0.00000000	      0.00000000	      5.51366417	     -8.32745674	     -4.68089726	     32.84507936	     45.38635749	      0.00000000	      0.00000000
      6.85535714	     -0.42314280	     -6.85881654	     -1.00388181	      1.05662225	      0.92600735	      0.54932593	     10.39868426	      7.47485124	    -11.83270524	     21.69076229	     21.69076229	     12.99587639	     -7.11873932	     -3.16860938	     26.16463668	    -15.79906542	      0.11760060	     64.60261611	     64.60261611	     13.75407257	    -19.62301071	     23.59525193	    -11.13091449	      7.73785596	      0.83647199	     25.15821625	    -16.54336681	    -11.08701990	     69.43291119	     45.22880639	      0.00000000	      0.00000000	      3.70953197	     -8.03643937	     -4.02678233	     30.91486059	     45.29418791	      0.00000000	      0.00000000
      6.87442857	     -0.32606079	     -6.76639186	     -0.42788513	      1.05585487	      0.92539174	      0.55039319	     10.18654511	      7.43947197	    -11.98899374	     22.12040704	     22.12040704	     13.53027048	     -7.69045756	     -3.00996961	     27.23924816	    -15.52131638	      0.15240231	     62.57783915	     62.57783915	     14.69602424	    -19.62601588	     23.53282967	    -11.27317184	      7.47080042	      0.80768955	     27.11446680	    -16.26582490	    -11.17016435	     71.16174226	     45.18559329	      0.00000000	      0.00000000	      2.03740604	     -7.75706290	     -3.41161534	     29.09420208	     45.19824043	      0.00000000	      0.00000000
      6.89350000	     -0.34199432	     -6.66720162	      0.15161401	      1.05493372	      0.92482108	      0.55109215	     10.02386153	      7.37915476	    -12.20981893	     22.38663362	     22.38663362	     14.02360009	     -8.09635703	     -2.73091988	     28.25852148	    -15.11007507	      0.22598105	     60.09538345	     60.09538345	     15.36166452	    -19.61237567	     23.36717465	    -11.31302810	      7.19057649	      0.87124466	     28.87934338	    -16.17015075	    -11.21095407	     72.96883223	     45.13945249	      0.00000000	      0.00000000	      0.55109280	     -7.52242773	     -2.66791285	     27.34383791	     45.08314966	      0.00000000	      0.00000000
